<svg xmlns="http://www.w3.org/2000/svg" width="19" height="20" viewBox="0 0 19 20"><g><g opacity="-1"><g><g opacity="-1"><path fill="#fff" d="M16.359 16.268c-.004 0-.004.004 0 0-.151.163-.307.31-.474.474-.252.24-.508.493-.749.776-.392.42-.853.617-1.459.617-.058 0-.12 0-.178-.004-1.153-.073-2.224-.524-3.028-.908a17.24 17.24 0 0 1-5.728-4.486c-1.324-1.596-2.209-3.07-2.795-4.654-.36-.966-.493-1.72-.434-2.43.038-.454.213-.83.535-1.152l1.324-1.324c.19-.178.392-.275.59-.275.244 0 .442.147.566.271l.012.012c.237.221.462.45.698.695.12.124.245.248.37.376l1.059 1.06c.411.411.411.792 0 1.203-.113.113-.221.225-.334.334-.326.334-.637.644-.974.947-.008.008-.016.011-.02.02-.333.333-.271.659-.201.88l.011.035c.276.668.664 1.296 1.254 2.045l.004.004c1.07 1.32 2.2 2.348 3.446 3.136.16.101.322.183.478.26.14.07.271.136.384.206.015.008.03.02.046.027a.841.841 0 0 0 .385.097.83.83 0 0 0 .59-.268l1.327-1.327c.132-.132.341-.291.586-.291.24 0 .438.151.559.283l.008.008 2.138 2.139c.4.395.4.803.004 1.214zm-1.39-4.086c-.376-.392-.83-.602-1.311-.602-.478 0-.936.206-1.328.598L11.104 13.4c-.101-.054-.202-.105-.299-.155-.14-.07-.272-.136-.384-.206-1.149-.73-2.193-1.68-3.194-2.91-.486-.614-.812-1.13-1.048-1.654.318-.291.613-.594.9-.885.109-.108.217-.221.326-.33.815-.815.815-1.87 0-2.685l-1.06-1.06c-.12-.12-.244-.245-.36-.369a18.33 18.33 0 0 0-.73-.722c-.376-.372-.827-.57-1.3-.57-.474 0-.932.198-1.32.57l-.008.008-1.32 1.331a2.84 2.84 0 0 0-.841 1.805c-.094 1.133.24 2.19.496 2.88.63 1.696 1.568 3.268 2.97 4.952a18.264 18.264 0 0 0 6.081 4.762c.893.423 2.084.924 3.416 1.01.081.003.167.007.244.007.897 0 1.65-.322 2.24-.962.003-.008.011-.012.015-.02.202-.244.435-.465.68-.702.166-.16.337-.326.504-.5.384-.4.586-.866.586-1.344 0-.481-.206-.943-.598-1.331z"/></g><g opacity="-1"><path fill="#fff" d="M10.374 5.164c1.017.171 1.94.652 2.678 1.39a4.947 4.947 0 0 1 1.39 2.678.52.52 0 0 0 .516.435c.03 0 .058-.004.09-.008a.524.524 0 0 0 .43-.606 5.986 5.986 0 0 0-1.68-3.24 5.986 5.986 0 0 0-3.241-1.68.527.527 0 0 0-.606.426.518.518 0 0 0 .423.605z"/></g><g opacity="-1"><path fill="#fff" d="M18.804 8.902a9.848 9.848 0 0 0-2.767-5.337A9.848 9.848 0 0 0 10.7.798a.522.522 0 1 0-.17 1.033 8.818 8.818 0 0 1 4.77 2.472 8.792 8.792 0 0 1 2.472 4.77.52.52 0 0 0 .516.434.514.514 0 0 0 .516-.605z"/></g></g></g></g></svg>