<svg xmlns="http://www.w3.org/2000/svg" width="23" height="22" viewBox="0 0 23 22"><g><g opacity="-1"><path fill="#475993" d="M19.427.024H3.374a2.961 2.961 0 0 0-2.96 2.962v16.053a2.961 2.961 0 0 0 2.96 2.96h7.918l.013-7.852h-2.04a.481.481 0 0 1-.481-.48l-.01-2.53a.481.481 0 0 1 .481-.484h2.037V8.207c0-2.838 1.733-4.384 4.265-4.384h2.078c.266 0 .481.216.481.482v2.134a.481.481 0 0 1-.48.481H16.36c-1.377 0-1.643.655-1.643 1.616v2.117h3.025c.289 0 .512.252.478.538l-.3 2.531a.481.481 0 0 1-.478.425H14.73L14.717 22h4.71a2.961 2.961 0 0 0 2.962-2.961V2.986A2.961 2.961 0 0 0 19.427.024z"/></g></g></svg>