<svg xmlns="http://www.w3.org/2000/svg" width="24" height="33" viewBox="0 0 24 33"><g><g opacity="-1"><g><g opacity="-1"><g><path fill="#fff" d="M20.147 16.93L12.22 30.167 4.086 17.058a9.38 9.38 0 0 1-1.413-4.937c0-5.18 4.226-9.405 9.405-9.405 5.179 0 9.399 4.226 9.399 9.405a9.384 9.384 0 0 1-1.33 4.81zM12.077.85C5.864.85.808 5.906.808 12.12c0 2.1.581 4.15 1.682 5.928l8.947 14.418a.94.94 0 0 0 .798.444h.008a.939.939 0 0 0 .798-.457l8.72-14.558a11.258 11.258 0 0 0 1.589-5.774C23.349 5.906 18.293.85 12.078.85z"/></g></g></g><g><g opacity="-1"><g><path fill="#fff" d="M12.078 15.89a3.772 3.772 0 0 1-3.77-3.77 3.783 3.783 0 0 1 3.77-3.769 3.777 3.777 0 0 1 3.763 3.77c0 2.046-1.648 3.77-3.763 3.77zm0-9.405a5.642 5.642 0 0 0-5.636 5.636 5.628 5.628 0 0 0 5.636 5.635c3.187 0 5.635-2.582 5.635-5.635a5.642 5.642 0 0 0-5.635-5.636z"/></g></g></g></g></g></svg>