<svg xmlns="http://www.w3.org/2000/svg" width="23" height="22" viewBox="0 0 23 22"><g><g><path fill="#4caf50" d="M11.676.024h-.005C5.612.024.686 4.952.686 11.012c0 2.404.774 4.632 2.091 6.44l-1.369 4.082 4.223-1.35A10.893 10.893 0 0 0 11.676 22c6.059 0 10.985-4.93 10.985-10.988S17.735.024 11.676.024z"/></g><g><path fill="#fafafa" d="M18.07 15.54c-.265.75-1.317 1.37-2.157 1.551-.574.122-1.324.22-3.848-.827-3.23-1.337-5.309-4.619-5.47-4.832-.156-.212-1.306-1.737-1.306-3.314 0-1.576.801-2.344 1.124-2.674.265-.27.703-.394 1.123-.394.136 0 .259.007.369.012.322.014.484.033.697.543.265.639.91 2.215.988 2.377.078.162.156.382.047.595-.104.22-.194.317-.356.504-.162.187-.316.33-.478.53-.149.175-.316.361-.13.684.188.316.833 1.37 1.783 2.216 1.227 1.092 2.221 1.44 2.577 1.589.265.11.581.084.775-.122.246-.266.55-.705.858-1.138.22-.31.497-.349.789-.239.296.103 1.866.88 2.189 1.04.323.162.536.239.614.375.077.136.077.775-.188 1.525z"/></g></g></svg>